<?xml version="1.0" encoding="utf-8" standalone="no"?>
<!DOCTYPE svg PUBLIC "-//W3C//DTD SVG 1.1//EN"
  "http://www.w3.org/Graphics/SVG/1.1/DTD/svg11.dtd">
<svg xmlns:xlink="http://www.w3.org/1999/xlink" width="1080pt" height="504pt" viewBox="0 0 1080 504" xmlns="http://www.w3.org/2000/svg" version="1.1">
 <metadata>
  <rdf:RDF xmlns:dc="http://purl.org/dc/elements/1.1/" xmlns:cc="http://creativecommons.org/ns#" xmlns:rdf="http://www.w3.org/1999/02/22-rdf-syntax-ns#">
   <cc:Work>
    <dc:type rdf:resource="http://purl.org/dc/dcmitype/StillImage"/>
    <dc:date>2022-11-02T11:13:12.103179</dc:date>
    <dc:format>image/svg+xml</dc:format>
    <dc:creator>
     <cc:Agent>
      <dc:title>Matplotlib v3.5.2, https://matplotlib.org/</dc:title>
     </cc:Agent>
    </dc:creator>
   </cc:Work>
  </rdf:RDF>
 </metadata>
 <defs>
  <style type="text/css">*{stroke-linejoin: round; stroke-linecap: butt}</style>
 </defs>
 <g id="figure_1">
  <g id="patch_1">
   <path d="M 0 504 
L 1080 504 
L 1080 0 
L 0 0 
z
" style="fill: #ffffff"/>
  </g>
  <g id="axes_1">
   <g id="patch_2">
    <path d="M 83.894 355.173659 
L 497.531 355.173659 
L 497.531 23.585679 
L 83.894 23.585679 
z
" style="fill: #ffffff"/>
   </g>
   <g id="matplotlib.axis_1">
    <g id="xtick_1">
     <g id="line2d_1">
      <defs>
       <path id="mcaeab595f9" d="M 0 0 
L 0 6 
" style="stroke: #262626; stroke-width: 1.25"/>
      </defs>
      <g>
       <use xlink:href="#mcaeab595f9" x="121.979458" y="355.173659" style="fill: #262626; stroke: #262626; stroke-width: 1.25"/>
      </g>
     </g>
     <g id="text_1">
      <text style="fill: #262626; font: 15.4px 'sans-serif'; text-anchor: end" x="132.975359" y="368.67584" transform="rotate(-70, 132.975359, 368.67584)">Original</text>
     </g>
    </g>
    <g id="xtick_2">
     <g id="line2d_2">
      <g>
       <use xlink:href="#mcaeab595f9" x="170.188899" y="355.173659" style="fill: #262626; stroke: #262626; stroke-width: 1.25"/>
      </g>
     </g>
     <g id="text_2">
      <text style="fill: #262626; font: 15.4px 'sans-serif'; text-anchor: end" x="181.1848" y="368.67584" transform="rotate(-70, 181.1848, 368.67584)">Keep ContentW</text>
     </g>
    </g>
    <g id="xtick_3">
     <g id="line2d_3">
      <g>
       <use xlink:href="#mcaeab595f9" x="218.398339" y="355.173659" style="fill: #262626; stroke: #262626; stroke-width: 1.25"/>
      </g>
     </g>
     <g id="text_3">
      <text style="fill: #262626; font: 15.4px 'sans-serif'; text-anchor: end" x="229.39424" y="368.67584" transform="rotate(-70, 229.39424, 368.67584)">Keep NVAdj</text>
     </g>
    </g>
    <g id="xtick_4">
     <g id="line2d_4">
      <g>
       <use xlink:href="#mcaeab595f9" x="266.60778" y="355.173659" style="fill: #262626; stroke: #262626; stroke-width: 1.25"/>
      </g>
     </g>
     <g id="text_4">
      <text style="fill: #262626; font: 15.4px 'sans-serif'; text-anchor: end" x="277.603681" y="368.67584" transform="rotate(-70, 277.603681, 368.67584)">Keep NV</text>
     </g>
    </g>
    <g id="xtick_5">
     <g id="line2d_5">
      <g>
       <use xlink:href="#mcaeab595f9" x="314.81722" y="355.173659" style="fill: #262626; stroke: #262626; stroke-width: 1.25"/>
      </g>
     </g>
     <g id="text_5">
      <text style="fill: #262626; font: 15.4px 'sans-serif'; text-anchor: end" x="325.813122" y="368.67584" transform="rotate(-70, 325.813122, 368.67584)">Keep N</text>
     </g>
    </g>
    <g id="xtick_6">
     <g id="line2d_6">
      <g>
       <use xlink:href="#mcaeab595f9" x="363.026661" y="355.173659" style="fill: #262626; stroke: #262626; stroke-width: 1.25"/>
      </g>
     </g>
     <g id="text_6">
      <text style="fill: #262626; font: 15.4px 'sans-serif'; text-anchor: end" x="374.022562" y="368.67584" transform="rotate(-70, 374.022562, 368.67584)">Keep FunctionW</text>
     </g>
    </g>
    <g id="xtick_7">
     <g id="line2d_7">
      <g>
       <use xlink:href="#mcaeab595f9" x="411.236101" y="355.173659" style="fill: #262626; stroke: #262626; stroke-width: 1.25"/>
      </g>
     </g>
     <g id="text_7">
      <text style="fill: #262626; font: 15.4px 'sans-serif'; text-anchor: end" x="422.232003" y="368.67584" transform="rotate(-70, 422.232003, 368.67584)">RandNouns</text>
     </g>
    </g>
    <g id="xtick_8">
     <g id="line2d_8">
      <g>
       <use xlink:href="#mcaeab595f9" x="459.445542" y="355.173659" style="fill: #262626; stroke: #262626; stroke-width: 1.25"/>
      </g>
     </g>
     <g id="text_8">
      <text style="fill: #262626; font: 15.4px 'sans-serif'; text-anchor: end" x="470.441443" y="368.67584" transform="rotate(-70, 470.441443, 368.67584)">RandWordList</text>
     </g>
    </g>
   </g>
   <g id="matplotlib.axis_2">
    <g id="ytick_1">
     <g id="line2d_9">
      <defs>
       <path id="mb8225540b9" d="M 0 0 
L -6 0 
" style="stroke: #262626; stroke-width: 1.25"/>
      </defs>
      <g>
       <use xlink:href="#mb8225540b9" x="83.894" y="264.149508" style="fill: #262626; stroke: #262626; stroke-width: 1.25"/>
      </g>
     </g>
     <g id="text_9">
      <text style="fill: #262626; font: 15.4px 'sans-serif'; text-anchor: end" x="74.394" y="270.000305" transform="rotate(-0, 74.394, 270.000305)">0.00</text>
     </g>
    </g>
    <g id="ytick_2">
     <g id="line2d_10">
      <g>
       <use xlink:href="#mb8225540b9" x="83.894" y="231.640882" style="fill: #262626; stroke: #262626; stroke-width: 1.25"/>
      </g>
     </g>
     <g id="text_10">
      <text style="fill: #262626; font: 15.4px 'sans-serif'; text-anchor: end" x="74.394" y="237.491679" transform="rotate(-0, 74.394, 237.491679)">0.25</text>
     </g>
    </g>
    <g id="ytick_3">
     <g id="line2d_11">
      <g>
       <use xlink:href="#mb8225540b9" x="83.894" y="199.132257" style="fill: #262626; stroke: #262626; stroke-width: 1.25"/>
      </g>
     </g>
     <g id="text_11">
      <text style="fill: #262626; font: 15.4px 'sans-serif'; text-anchor: end" x="74.394" y="204.983054" transform="rotate(-0, 74.394, 204.983054)">0.50</text>
     </g>
    </g>
    <g id="ytick_4">
     <g id="line2d_12">
      <g>
       <use xlink:href="#mb8225540b9" x="83.894" y="166.623631" style="fill: #262626; stroke: #262626; stroke-width: 1.25"/>
      </g>
     </g>
     <g id="text_12">
      <text style="fill: #262626; font: 15.4px 'sans-serif'; text-anchor: end" x="74.394" y="172.474428" transform="rotate(-0, 74.394, 172.474428)">0.75</text>
     </g>
    </g>
    <g id="ytick_5">
     <g id="line2d_13">
      <g>
       <use xlink:href="#mb8225540b9" x="83.894" y="134.115006" style="fill: #262626; stroke: #262626; stroke-width: 1.25"/>
      </g>
     </g>
     <g id="text_13">
      <text style="fill: #262626; font: 15.4px 'sans-serif'; text-anchor: end" x="74.394" y="139.965803" transform="rotate(-0, 74.394, 139.965803)">1.00</text>
     </g>
    </g>
    <g id="text_14">
     <text style="fill: #262626; font: 16.8px 'sans-serif'; text-anchor: middle" x="32.611062" y="189.379669" transform="rotate(-90, 32.611062, 189.379669)">Normalized predictivity</text>
    </g>
   </g>
   <g id="patch_3">
    <path d="M 102.695682 264.149508 
L 141.263234 264.149508 
L 141.263234 120.175484 
L 102.695682 120.175484 
z
" clip-path="url(#p29781a683e)" style="fill: #696969; opacity: 0.9; stroke: #ffffff; stroke-linejoin: miter"/>
   </g>
   <g id="patch_4">
    <path d="M 150.905122 264.149508 
L 189.472675 264.149508 
L 189.472675 149.30114 
L 150.905122 149.30114 
z
" clip-path="url(#p29781a683e)" style="fill: #1b4223; opacity: 0.9; stroke: #ffffff; stroke-linejoin: miter"/>
   </g>
   <g id="patch_5">
    <path d="M 199.114563 264.149508 
L 237.682115 264.149508 
L 237.682115 152.820719 
L 199.114563 152.820719 
z
" clip-path="url(#p29781a683e)" style="fill: #33693e; opacity: 0.9; stroke: #ffffff; stroke-linejoin: miter"/>
   </g>
   <g id="patch_6">
    <path d="M 247.324003 264.149508 
L 285.891556 264.149508 
L 285.891556 158.976544 
L 247.324003 158.976544 
z
" clip-path="url(#p29781a683e)" style="fill: #508d5c; opacity: 0.9; stroke: #ffffff; stroke-linejoin: miter"/>
   </g>
   <g id="patch_7">
    <path d="M 295.533444 264.149508 
L 334.100997 264.149508 
L 334.100997 180.300907 
L 295.533444 180.300907 
z
" clip-path="url(#p29781a683e)" style="fill: #73ae7f; opacity: 0.9; stroke: #ffffff; stroke-linejoin: miter"/>
   </g>
   <g id="patch_8">
    <path d="M 343.742885 264.149508 
L 382.310437 264.149508 
L 382.310437 239.978496 
L 343.742885 239.978496 
z
" clip-path="url(#p29781a683e)" style="fill: #9acba4; opacity: 0.9; stroke: #ffffff; stroke-linejoin: miter"/>
   </g>
   <g id="patch_9">
    <path d="M 391.952325 264.149508 
L 430.519878 264.149508 
L 430.519878 248.184356 
L 391.952325 248.184356 
z
" clip-path="url(#p29781a683e)" style="fill: #c6e5cc; opacity: 0.9; stroke: #ffffff; stroke-linejoin: miter"/>
   </g>
   <g id="patch_10">
    <path d="M 440.161766 264.149508 
L 478.729318 264.149508 
L 478.729318 250.013645 
L 440.161766 250.013645 
z
" clip-path="url(#p29781a683e)" style="fill: #d3d3d3; opacity: 0.9; stroke: #ffffff; stroke-linejoin: miter"/>
   </g>
   <g id="LineCollection_1">
    <path d="M 121.979458 138.619517 
L 121.979458 101.731452 
" clip-path="url(#p29781a683e)" style="fill: none; stroke: #000000; stroke-width: 1.5"/>
    <path d="M 170.188899 163.759805 
L 170.188899 134.842475 
" clip-path="url(#p29781a683e)" style="fill: none; stroke: #000000; stroke-width: 1.5"/>
    <path d="M 218.398339 159.985691 
L 218.398339 145.655747 
" clip-path="url(#p29781a683e)" style="fill: none; stroke: #000000; stroke-width: 1.5"/>
    <path d="M 266.60778 171.784387 
L 266.60778 146.168701 
" clip-path="url(#p29781a683e)" style="fill: none; stroke: #000000; stroke-width: 1.5"/>
    <path d="M 314.81722 190.458168 
L 314.81722 170.143645 
" clip-path="url(#p29781a683e)" style="fill: none; stroke: #000000; stroke-width: 1.5"/>
    <path d="M 363.026661 245.291178 
L 363.026661 234.665815 
" clip-path="url(#p29781a683e)" style="fill: none; stroke: #000000; stroke-width: 1.5"/>
    <path d="M 411.236101 259.130109 
L 411.236101 237.238602 
" clip-path="url(#p29781a683e)" style="fill: none; stroke: #000000; stroke-width: 1.5"/>
    <path d="M 459.445542 259.164596 
L 459.445542 240.862693 
" clip-path="url(#p29781a683e)" style="fill: none; stroke: #000000; stroke-width: 1.5"/>
   </g>
   <g id="line2d_14">
    <defs>
     <path id="m6a79dcf1ae" d="M 5 0 
L -5 -0 
" style="stroke: #000000"/>
    </defs>
    <g clip-path="url(#p29781a683e)">
     <use xlink:href="#m6a79dcf1ae" x="121.979458" y="138.619517" style="stroke: #000000"/>
     <use xlink:href="#m6a79dcf1ae" x="170.188899" y="163.759805" style="stroke: #000000"/>
     <use xlink:href="#m6a79dcf1ae" x="218.398339" y="159.985691" style="stroke: #000000"/>
     <use xlink:href="#m6a79dcf1ae" x="266.60778" y="171.784387" style="stroke: #000000"/>
     <use xlink:href="#m6a79dcf1ae" x="314.81722" y="190.458168" style="stroke: #000000"/>
     <use xlink:href="#m6a79dcf1ae" x="363.026661" y="245.291178" style="stroke: #000000"/>
     <use xlink:href="#m6a79dcf1ae" x="411.236101" y="259.130109" style="stroke: #000000"/>
     <use xlink:href="#m6a79dcf1ae" x="459.445542" y="259.164596" style="stroke: #000000"/>
    </g>
   </g>
   <g id="line2d_15">
    <g clip-path="url(#p29781a683e)">
     <use xlink:href="#m6a79dcf1ae" x="121.979458" y="101.731452" style="stroke: #000000"/>
     <use xlink:href="#m6a79dcf1ae" x="170.188899" y="134.842475" style="stroke: #000000"/>
     <use xlink:href="#m6a79dcf1ae" x="218.398339" y="145.655747" style="stroke: #000000"/>
     <use xlink:href="#m6a79dcf1ae" x="266.60778" y="146.168701" style="stroke: #000000"/>
     <use xlink:href="#m6a79dcf1ae" x="314.81722" y="170.143645" style="stroke: #000000"/>
     <use xlink:href="#m6a79dcf1ae" x="363.026661" y="234.665815" style="stroke: #000000"/>
     <use xlink:href="#m6a79dcf1ae" x="411.236101" y="237.238602" style="stroke: #000000"/>
     <use xlink:href="#m6a79dcf1ae" x="459.445542" y="240.862693" style="stroke: #000000"/>
    </g>
   </g>
   <g id="line2d_16">
    <path d="M 121.979458 100.670309 
L 121.979458 96.406835 
L 170.188899 96.406835 
L 170.188899 100.670309 
" clip-path="url(#p29781a683e)" style="fill: none; stroke: #000000; stroke-linecap: round"/>
   </g>
   <g id="line2d_17">
    <path d="M 170.188899 279.251438 
L 170.188899 283.654683 
L 459.445542 283.654683 
L 459.445542 279.251438 
" clip-path="url(#p29781a683e)" style="fill: none; stroke: #000000; stroke-linecap: round"/>
   </g>
   <g id="line2d_18">
    <path d="M 121.979458 87.666859 
L 121.979458 82.517543 
L 218.398339 82.517543 
L 218.398339 87.666859 
" clip-path="url(#p29781a683e)" style="fill: none; stroke: #000000; stroke-linecap: round"/>
   </g>
   <g id="line2d_19">
    <path d="M 218.398339 291.126862 
L 218.398339 296.658133 
L 459.445542 296.658133 
L 459.445542 291.126862 
" clip-path="url(#p29781a683e)" style="fill: none; stroke: #000000; stroke-linecap: round"/>
   </g>
   <g id="line2d_20">
    <path d="M 121.979458 74.663409 
L 121.979458 68.774543 
L 266.60778 68.774543 
L 266.60778 74.663409 
" clip-path="url(#p29781a683e)" style="fill: none; stroke: #000000; stroke-linecap: round"/>
   </g>
   <g id="line2d_21">
    <path d="M 266.60778 303.394785 
L 266.60778 309.661584 
L 459.445542 309.661584 
L 459.445542 303.394785 
" clip-path="url(#p29781a683e)" style="fill: none; stroke: #000000; stroke-linecap: round"/>
   </g>
   <g id="line2d_22">
    <path d="M 121.979458 61.659959 
L 121.979458 55.035565 
L 314.81722 55.035565 
L 314.81722 61.659959 
" clip-path="url(#p29781a683e)" style="fill: none; stroke: #000000; stroke-linecap: round"/>
   </g>
   <g id="line2d_23">
    <path d="M 314.81722 315.662818 
L 314.81722 322.665034 
L 459.445542 322.665034 
L 459.445542 315.662818 
" clip-path="url(#p29781a683e)" style="fill: none; stroke: #000000; stroke-linecap: round"/>
   </g>
   <g id="line2d_24">
    <path d="M 121.979458 48.656508 
L 121.979458 41.296698 
L 363.026661 41.296698 
L 363.026661 48.656508 
" clip-path="url(#p29781a683e)" style="fill: none; stroke: #000000; stroke-linecap: round"/>
   </g>
   <g id="line2d_25">
    <path d="M 363.026661 327.930855 
L 363.026661 335.668484 
L 459.445542 335.668484 
L 459.445542 327.930855 
" clip-path="url(#p29781a683e)" style="fill: none; stroke: #000000; stroke-linecap: round"/>
   </g>
   <g id="line2d_26">
    <path d="M 121.979458 35.653058 
L 121.979458 27.557834 
L 411.236101 27.557834 
L 411.236101 35.653058 
" clip-path="url(#p29781a683e)" style="fill: none; stroke: #000000; stroke-linecap: round"/>
   </g>
   <g id="line2d_27">
    <path d="M 411.236101 340.198891 
L 411.236101 348.671934 
L 459.445542 348.671934 
L 459.445542 340.198891 
" clip-path="url(#p29781a683e)" style="fill: none; stroke: #000000; stroke-linecap: round"/>
   </g>
   <g id="line2d_28">
    <path d="M 83.894 120.175484 
L 497.531 120.175484 
" clip-path="url(#p29781a683e)" style="fill: none; stroke-dasharray: 5,3; stroke-dashoffset: 0; stroke: #696969"/>
   </g>
   <g id="line2d_29">
    <path d="M 83.894 250.013645 
L 497.531 250.013645 
" clip-path="url(#p29781a683e)" style="fill: none; stroke-dasharray: 5,3; stroke-dashoffset: 0; stroke: #d3d3d3"/>
   </g>
   <g id="line2d_30">
    <path d="M 83.894 264.149508 
L 497.531 264.149508 
" clip-path="url(#p29781a683e)" style="fill: none; stroke: #000000; stroke-width: 1.5; stroke-linecap: round"/>
   </g>
   <g id="patch_11">
    <path d="M 83.894 355.173659 
L 83.894 23.585679 
" style="fill: none; stroke: #262626; stroke-width: 1.25; stroke-linejoin: miter; stroke-linecap: square"/>
   </g>
   <g id="patch_12">
    <path d="M 83.894 355.173659 
L 497.531 355.173659 
" style="fill: none; stroke: #262626; stroke-width: 1.25; stroke-linejoin: miter; stroke-linecap: square"/>
   </g>
   <g id="text_15">
    <text style="fill: #262626; font: 10px 'sans-serif'; text-anchor: middle" x="146.084178" y="94.327148" transform="rotate(-0, 146.084178, 94.327148)">***</text>
   </g>
   <g id="text_16">
    <text style="fill: #262626; font: 10px 'sans-serif'; text-anchor: middle" x="314.81722" y="281.574996" transform="rotate(-0, 314.81722, 281.574996)">***</text>
   </g>
   <g id="text_17">
    <text style="fill: #262626; font: 10px 'sans-serif'; text-anchor: middle" x="170.188899" y="80.437856" transform="rotate(-0, 170.188899, 80.437856)">***</text>
   </g>
   <g id="text_18">
    <text style="fill: #262626; font: 10px 'sans-serif'; text-anchor: middle" x="338.921941" y="294.578446" transform="rotate(-0, 338.921941, 294.578446)">***</text>
   </g>
   <g id="text_19">
    <text style="fill: #262626; font: 10px 'sans-serif'; text-anchor: middle" x="194.293619" y="66.694855" transform="rotate(-0, 194.293619, 66.694855)">***</text>
   </g>
   <g id="text_20">
    <text style="fill: #262626; font: 10px 'sans-serif'; text-anchor: middle" x="363.026661" y="307.581896" transform="rotate(-0, 363.026661, 307.581896)">***</text>
   </g>
   <g id="text_21">
    <text style="fill: #262626; font: 10px 'sans-serif'; text-anchor: middle" x="218.398339" y="52.955877" transform="rotate(-0, 218.398339, 52.955877)">***</text>
   </g>
   <g id="text_22">
    <text style="fill: #262626; font: 10px 'sans-serif'; text-anchor: middle" x="387.131381" y="320.585346" transform="rotate(-0, 387.131381, 320.585346)">***</text>
   </g>
   <g id="text_23">
    <text style="fill: #262626; font: 10px 'sans-serif'; text-anchor: middle" x="242.503059" y="39.217011" transform="rotate(-0, 242.503059, 39.217011)">***</text>
   </g>
   <g id="text_24">
    <text style="fill: #262626; font: 10px 'sans-serif'; text-anchor: middle" x="411.236101" y="333.588796" transform="rotate(-0, 411.236101, 333.588796)">*</text>
   </g>
   <g id="text_25">
    <text style="fill: #262626; font: 10px 'sans-serif'; text-anchor: middle" x="266.60778" y="25.478147" transform="rotate(-0, 266.60778, 25.478147)">***</text>
   </g>
   <g id="text_26">
    <text style="fill: #262626; font: 10px 'sans-serif'; text-anchor: middle" x="435.340822" y="346.592247" transform="rotate(-0, 435.340822, 346.592247)">n.s.</text>
   </g>
   <g id="legend_1">
    <g id="patch_13">
     <path d="M 527.66285 281.300138 
L 1036.203631 281.300138 
Q 1038.903631 281.300138 1038.903631 278.600138 
L 1038.903631 100.159201 
Q 1038.903631 97.459201 1036.203631 97.459201 
L 527.66285 97.459201 
Q 524.96285 97.459201 524.96285 100.159201 
L 524.96285 278.600138 
Q 524.96285 281.300138 527.66285 281.300138 
z
" style="fill: #ffffff; opacity: 0.8; stroke: #cccccc; stroke-linejoin: miter"/>
    </g>
    <g id="text_27">
     <text style="fill: #262626; font: 15px 'sans-serif'; text-anchor: start" x="665.866053" y="114.256857" transform="rotate(-0, 665.866053, 114.256857)">information-loss manipulations</text>
    </g>
    <g id="patch_14">
     <path d="M 530.36285 134.384279 
L 557.36285 134.384279 
L 557.36285 124.934279 
L 530.36285 124.934279 
z
" style="fill: #696969; opacity: 0.8; stroke: #696969; stroke-linejoin: miter"/>
    </g>
    <g id="text_28">
     <text style="fill: #262626; font: 13.5px 'sans-serif'; text-anchor: start" x="568.16285" y="134.384279" transform="rotate(-0, 568.16285, 134.384279)">Original: beekeeping encourages the conservation of local habitats.</text>
    </g>
    <g id="patch_15">
     <path d="M 530.36285 154.199747 
L 557.36285 154.199747 
L 557.36285 144.749747 
L 530.36285 144.749747 
z
" style="fill: #1b4223; opacity: 0.8; stroke: #1b4223; stroke-linejoin: miter"/>
    </g>
    <g id="text_29">
     <text style="fill: #262626; font: 13.5px 'sans-serif'; text-anchor: start" x="568.16285" y="154.199747" transform="rotate(-0, 568.16285, 154.199747)">Keep ContentW: beekeeping encourages conservation local habitats.</text>
    </g>
    <g id="patch_16">
     <path d="M 530.36285 174.015216 
L 557.36285 174.015216 
L 557.36285 164.565216 
L 530.36285 164.565216 
z
" style="fill: #33693e; opacity: 0.8; stroke: #33693e; stroke-linejoin: miter"/>
    </g>
    <g id="text_30">
     <text style="fill: #262626; font: 13.5px 'sans-serif'; text-anchor: start" x="568.16285" y="174.015216" transform="rotate(-0, 568.16285, 174.015216)">Keep NVAdj: beekeeping encourages conservation local habitats.</text>
    </g>
    <g id="patch_17">
     <path d="M 530.36285 193.830685 
L 557.36285 193.830685 
L 557.36285 184.380685 
L 530.36285 184.380685 
z
" style="fill: #508d5c; opacity: 0.8; stroke: #508d5c; stroke-linejoin: miter"/>
    </g>
    <g id="text_31">
     <text style="fill: #262626; font: 13.5px 'sans-serif'; text-anchor: start" x="568.16285" y="193.830685" transform="rotate(-0, 568.16285, 193.830685)">Keep NV: beekeeping encourages conservation habitats.</text>
    </g>
    <g id="patch_18">
     <path d="M 530.36285 213.646154 
L 557.36285 213.646154 
L 557.36285 204.196154 
L 530.36285 204.196154 
z
" style="fill: #73ae7f; opacity: 0.8; stroke: #73ae7f; stroke-linejoin: miter"/>
    </g>
    <g id="text_32">
     <text style="fill: #262626; font: 13.5px 'sans-serif'; text-anchor: start" x="568.16285" y="213.646154" transform="rotate(-0, 568.16285, 213.646154)">Keep N: conservation habitats.</text>
    </g>
    <g id="patch_19">
     <path d="M 530.36285 233.461622 
L 557.36285 233.461622 
L 557.36285 224.011622 
L 530.36285 224.011622 
z
" style="fill: #9acba4; opacity: 0.8; stroke: #9acba4; stroke-linejoin: miter"/>
    </g>
    <g id="text_33">
     <text style="fill: #262626; font: 13.5px 'sans-serif'; text-anchor: start" x="568.16285" y="233.461622" transform="rotate(-0, 568.16285, 233.461622)">Keep FunctionW: the of.</text>
    </g>
    <g id="patch_20">
     <path d="M 530.36285 253.277091 
L 557.36285 253.277091 
L 557.36285 243.827091 
L 530.36285 243.827091 
z
" style="fill: #c6e5cc; opacity: 0.8; stroke: #c6e5cc; stroke-linejoin: miter"/>
    </g>
    <g id="text_34">
     <text style="fill: #262626; font: 13.5px 'sans-serif'; text-anchor: start" x="568.16285" y="253.277091" transform="rotate(-0, 568.16285, 253.277091)">RandNouns: its doctors.</text>
    </g>
    <g id="patch_21">
     <path d="M 530.36285 273.09256 
L 557.36285 273.09256 
L 557.36285 263.64256 
L 530.36285 263.64256 
z
" style="fill: #d3d3d3; opacity: 0.8; stroke: #d3d3d3; stroke-linejoin: miter"/>
    </g>
    <g id="text_35">
     <text style="fill: #262626; font: 13.5px 'sans-serif'; text-anchor: start" x="568.16285" y="273.09256" transform="rotate(-0, 568.16285, 273.09256)">RandWordList: three climb around the the spears vapor.</text>
    </g>
   </g>
  </g>
 </g>
 <defs>
  <clipPath id="p29781a683e">
   <rect x="83.894" y="23.585679" width="413.637" height="331.58798"/>
  </clipPath>
 </defs>
</svg>
