<?xml version="1.0" encoding="utf-8" standalone="no"?>
<!DOCTYPE svg PUBLIC "-//W3C//DTD SVG 1.1//EN"
  "http://www.w3.org/Graphics/SVG/1.1/DTD/svg11.dtd">
<svg xmlns:xlink="http://www.w3.org/1999/xlink" width="711.061562pt" height="590.369687pt" viewBox="0 0 711.061562 590.369687" xmlns="http://www.w3.org/2000/svg" version="1.1">
 <metadata>
  <rdf:RDF xmlns:dc="http://purl.org/dc/elements/1.1/" xmlns:cc="http://creativecommons.org/ns#" xmlns:rdf="http://www.w3.org/1999/02/22-rdf-syntax-ns#">
   <cc:Work>
    <dc:type rdf:resource="http://purl.org/dc/dcmitype/StillImage"/>
    <dc:date>2022-11-02T13:11:28.801159</dc:date>
    <dc:format>image/svg+xml</dc:format>
    <dc:creator>
     <cc:Agent>
      <dc:title>Matplotlib v3.5.2, https://matplotlib.org/</dc:title>
     </cc:Agent>
    </dc:creator>
   </cc:Work>
  </rdf:RDF>
 </metadata>
 <defs>
  <style type="text/css">*{stroke-linejoin: round; stroke-linecap: butt}</style>
 </defs>
 <g id="figure_1">
  <g id="patch_1">
   <path d="M 0 590.369687 
L 711.061562 590.369687 
L 711.061562 -0 
L 0 -0 
z
" style="fill: #ffffff"/>
  </g>
  <g id="axes_1">
   <g id="patch_2">
    <path d="M 31.604313 558.765375 
L 528.404313 558.765375 
L 528.404313 61.965375 
L 31.604313 61.965375 
z
" style="fill: #ffffff"/>
   </g>
   <g id="matplotlib.axis_1">
    <g id="xtick_1">
     <g id="line2d_1">
      <defs>
       <path id="m3fbab9b21c" d="M 0 0 
L 0 6 
" style="stroke: #262626; stroke-width: 1.25"/>
      </defs>
      <g>
       <use xlink:href="#m3fbab9b21c" x="81.284313" y="558.765375" style="fill: #262626; stroke: #262626; stroke-width: 1.25"/>
      </g>
     </g>
     <g id="text_1">
      <text style="fill: #262626; font: 15.4px 'sans-serif'; text-anchor: middle" x="81.284313" y="579.966969" transform="rotate(-0, 81.284313, 579.966969)">KeepContentW</text>
     </g>
    </g>
    <g id="xtick_2">
     <g id="line2d_2">
      <g>
       <use xlink:href="#m3fbab9b21c" x="180.644313" y="558.765375" style="fill: #262626; stroke: #262626; stroke-width: 1.25"/>
      </g>
     </g>
     <g id="text_2">
      <text style="fill: #262626; font: 15.4px 'sans-serif'; text-anchor: middle" x="180.644313" y="579.966969" transform="rotate(-0, 180.644313, 579.966969)">KeepNVAdj</text>
     </g>
    </g>
    <g id="xtick_3">
     <g id="line2d_3">
      <g>
       <use xlink:href="#m3fbab9b21c" x="280.004313" y="558.765375" style="fill: #262626; stroke: #262626; stroke-width: 1.25"/>
      </g>
     </g>
     <g id="text_3">
      <text style="fill: #262626; font: 15.4px 'sans-serif'; text-anchor: middle" x="280.004313" y="579.966969" transform="rotate(-0, 280.004313, 579.966969)">KeepNV</text>
     </g>
    </g>
    <g id="xtick_4">
     <g id="line2d_4">
      <g>
       <use xlink:href="#m3fbab9b21c" x="379.364313" y="558.765375" style="fill: #262626; stroke: #262626; stroke-width: 1.25"/>
      </g>
     </g>
     <g id="text_4">
      <text style="fill: #262626; font: 15.4px 'sans-serif'; text-anchor: middle" x="379.364313" y="579.966969" transform="rotate(-0, 379.364313, 579.966969)">KeepN</text>
     </g>
    </g>
    <g id="xtick_5">
     <g id="line2d_5">
      <g>
       <use xlink:href="#m3fbab9b21c" x="478.724313" y="558.765375" style="fill: #262626; stroke: #262626; stroke-width: 1.25"/>
      </g>
     </g>
     <g id="text_5">
      <text style="fill: #262626; font: 15.4px 'sans-serif'; text-anchor: middle" x="478.724313" y="579.966969" transform="rotate(-0, 478.724313, 579.966969)">KeepFunctionW</text>
     </g>
    </g>
   </g>
   <g id="matplotlib.axis_2">
    <g id="ytick_1">
     <g id="line2d_6">
      <defs>
       <path id="m4daed07bb4" d="M 0 0 
L -6 0 
" style="stroke: #262626; stroke-width: 1.25"/>
      </defs>
      <g>
       <use xlink:href="#m4daed07bb4" x="31.604313" y="111.645375" style="fill: #262626; stroke: #262626; stroke-width: 1.25"/>
      </g>
     </g>
     <g id="text_6">
      <text style="fill: #262626; font: 15.4px 'sans-serif'" transform="translate(18.901594 168.910516)rotate(-90)">KeepContentW</text>
     </g>
    </g>
    <g id="ytick_2">
     <g id="line2d_7">
      <g>
       <use xlink:href="#m4daed07bb4" x="31.604313" y="211.005375" style="fill: #262626; stroke: #262626; stroke-width: 1.25"/>
      </g>
     </g>
     <g id="text_7">
      <text style="fill: #262626; font: 15.4px 'sans-serif'" transform="translate(18.901594 252.730953)rotate(-90)">KeepNVAdj</text>
     </g>
    </g>
    <g id="ytick_3">
     <g id="line2d_8">
      <g>
       <use xlink:href="#m4daed07bb4" x="31.604313" y="310.365375" style="fill: #262626; stroke: #262626; stroke-width: 1.25"/>
      </g>
     </g>
     <g id="text_8">
      <text style="fill: #262626; font: 15.4px 'sans-serif'" transform="translate(18.901594 340.421844)rotate(-90)">KeepNV</text>
     </g>
    </g>
    <g id="ytick_4">
     <g id="line2d_9">
      <g>
       <use xlink:href="#m4daed07bb4" x="31.604313" y="409.725375" style="fill: #262626; stroke: #262626; stroke-width: 1.25"/>
      </g>
     </g>
     <g id="text_9">
      <text style="fill: #262626; font: 15.4px 'sans-serif'" transform="translate(18.901594 434.514562)rotate(-90)">KeepN</text>
     </g>
    </g>
    <g id="ytick_5">
     <g id="line2d_10">
      <g>
       <use xlink:href="#m4daed07bb4" x="31.604313" y="509.085375" style="fill: #262626; stroke: #262626; stroke-width: 1.25"/>
      </g>
     </g>
     <g id="text_10">
      <text style="fill: #262626; font: 15.4px 'sans-serif'" transform="translate(18.901594 568.475234)rotate(-90)">KeepFunctionW</text>
     </g>
    </g>
   </g>
   <g id="QuadMesh_1">
    <path d="M 31.604313 61.965375 
L 130.964313 61.965375 
L 130.964313 161.325375 
L 31.604313 161.325375 
L 31.604313 61.965375 
" style="fill: #ffffff; stroke: #808080; stroke-width: 0.25"/>
    <path d="M 130.964313 61.965375 
L 230.324313 61.965375 
L 230.324313 161.325375 
L 130.964313 161.325375 
L 130.964313 61.965375 
" style="fill: #fbd7d4; stroke: #808080; stroke-width: 0.25"/>
    <path d="M 230.324313 61.965375 
L 329.684313 61.965375 
L 329.684313 161.325375 
L 230.324313 161.325375 
L 230.324313 61.965375 
" style="fill: #fbd7d4; stroke: #808080; stroke-width: 0.25"/>
    <path d="M 329.684313 61.965375 
L 429.044313 61.965375 
L 429.044313 161.325375 
L 329.684313 161.325375 
L 329.684313 61.965375 
" style="fill: #005a32; stroke: #808080; stroke-width: 0.25"/>
    <path d="M 429.044313 61.965375 
L 528.404313 61.965375 
L 528.404313 161.325375 
L 429.044313 161.325375 
L 429.044313 61.965375 
" style="fill: #005a32; stroke: #808080; stroke-width: 0.25"/>
    <path d="M 31.604313 161.325375 
L 130.964313 161.325375 
L 130.964313 260.685375 
L 31.604313 260.685375 
L 31.604313 161.325375 
" style="fill: #fbd7d4; stroke: #808080; stroke-width: 0.25"/>
    <path d="M 130.964313 161.325375 
L 230.324313 161.325375 
L 230.324313 260.685375 
L 130.964313 260.685375 
L 130.964313 161.325375 
" style="fill: #ffffff; stroke: #808080; stroke-width: 0.25"/>
    <path d="M 230.324313 161.325375 
L 329.684313 161.325375 
L 329.684313 260.685375 
L 230.324313 260.685375 
L 230.324313 161.325375 
" style="fill: #fbd7d4; stroke: #808080; stroke-width: 0.25"/>
    <path d="M 329.684313 161.325375 
L 429.044313 161.325375 
L 429.044313 260.685375 
L 329.684313 260.685375 
L 329.684313 161.325375 
" style="fill: #005a32; stroke: #808080; stroke-width: 0.25"/>
    <path d="M 429.044313 161.325375 
L 528.404313 161.325375 
L 528.404313 260.685375 
L 429.044313 260.685375 
L 429.044313 161.325375 
" style="fill: #005a32; stroke: #808080; stroke-width: 0.25"/>
    <path d="M 31.604313 260.685375 
L 130.964313 260.685375 
L 130.964313 360.045375 
L 31.604313 360.045375 
L 31.604313 260.685375 
" style="fill: #fbd7d4; stroke: #808080; stroke-width: 0.25"/>
    <path d="M 130.964313 260.685375 
L 230.324313 260.685375 
L 230.324313 360.045375 
L 130.964313 360.045375 
L 130.964313 260.685375 
" style="fill: #fbd7d4; stroke: #808080; stroke-width: 0.25"/>
    <path d="M 230.324313 260.685375 
L 329.684313 260.685375 
L 329.684313 360.045375 
L 230.324313 360.045375 
L 230.324313 260.685375 
" style="fill: #ffffff; stroke: #808080; stroke-width: 0.25"/>
    <path d="M 329.684313 260.685375 
L 429.044313 260.685375 
L 429.044313 360.045375 
L 329.684313 360.045375 
L 329.684313 260.685375 
" style="fill: #005a32; stroke: #808080; stroke-width: 0.25"/>
    <path d="M 429.044313 260.685375 
L 528.404313 260.685375 
L 528.404313 360.045375 
L 429.044313 360.045375 
L 429.044313 260.685375 
" style="fill: #005a32; stroke: #808080; stroke-width: 0.25"/>
    <path d="M 31.604313 360.045375 
L 130.964313 360.045375 
L 130.964313 459.405375 
L 31.604313 459.405375 
L 31.604313 360.045375 
" style="fill: #005a32; stroke: #808080; stroke-width: 0.25"/>
    <path d="M 130.964313 360.045375 
L 230.324313 360.045375 
L 230.324313 459.405375 
L 130.964313 459.405375 
L 130.964313 360.045375 
" style="fill: #005a32; stroke: #808080; stroke-width: 0.25"/>
    <path d="M 230.324313 360.045375 
L 329.684313 360.045375 
L 329.684313 459.405375 
L 230.324313 459.405375 
L 230.324313 360.045375 
" style="fill: #005a32; stroke: #808080; stroke-width: 0.25"/>
    <path d="M 329.684313 360.045375 
L 429.044313 360.045375 
L 429.044313 459.405375 
L 329.684313 459.405375 
L 329.684313 360.045375 
" style="fill: #ffffff; stroke: #808080; stroke-width: 0.25"/>
    <path d="M 429.044313 360.045375 
L 528.404313 360.045375 
L 528.404313 459.405375 
L 429.044313 459.405375 
L 429.044313 360.045375 
" style="fill: #005a32; stroke: #808080; stroke-width: 0.25"/>
    <path d="M 31.604313 459.405375 
L 130.964313 459.405375 
L 130.964313 558.765375 
L 31.604313 558.765375 
L 31.604313 459.405375 
" style="fill: #005a32; stroke: #808080; stroke-width: 0.25"/>
    <path d="M 130.964313 459.405375 
L 230.324313 459.405375 
L 230.324313 558.765375 
L 130.964313 558.765375 
L 130.964313 459.405375 
" style="fill: #005a32; stroke: #808080; stroke-width: 0.25"/>
    <path d="M 230.324313 459.405375 
L 329.684313 459.405375 
L 329.684313 558.765375 
L 230.324313 558.765375 
L 230.324313 459.405375 
" style="fill: #005a32; stroke: #808080; stroke-width: 0.25"/>
    <path d="M 329.684313 459.405375 
L 429.044313 459.405375 
L 429.044313 558.765375 
L 329.684313 558.765375 
L 329.684313 459.405375 
" style="fill: #005a32; stroke: #808080; stroke-width: 0.25"/>
    <path d="M 429.044313 459.405375 
L 528.404313 459.405375 
L 528.404313 558.765375 
L 429.044313 558.765375 
L 429.044313 459.405375 
" style="fill: #ffffff; stroke: #808080; stroke-width: 0.25"/>
   </g>
   <g id="text_11">
    <text style="fill: #262626; font: 16.8px 'sans-serif'; text-anchor: middle" x="81.284313" y="116.281125" transform="rotate(-0, 81.284313, 116.281125)">1.000</text>
   </g>
   <g id="text_12">
    <text style="fill: #262626; font: 16.8px 'sans-serif'; text-anchor: middle" x="180.644313" y="116.281125" transform="rotate(-0, 180.644313, 116.281125)">0.684</text>
   </g>
   <g id="text_13">
    <text style="fill: #262626; font: 16.8px 'sans-serif'; text-anchor: middle" x="280.004313" y="116.281125" transform="rotate(-0, 280.004313, 116.281125)">0.180</text>
   </g>
   <g id="text_14">
    <text style="fill: #ffffff; font: 16.8px 'sans-serif'; text-anchor: middle" x="379.364313" y="116.281125" transform="rotate(-0, 379.364313, 116.281125)">0.000</text>
   </g>
   <g id="text_15">
    <text style="fill: #ffffff; font: 16.8px 'sans-serif'; text-anchor: middle" x="478.724313" y="116.281125" transform="rotate(-0, 478.724313, 116.281125)">0.000</text>
   </g>
   <g id="text_16">
    <text style="fill: #262626; font: 16.8px 'sans-serif'; text-anchor: middle" x="81.284313" y="215.641125" transform="rotate(-0, 81.284313, 215.641125)">0.684</text>
   </g>
   <g id="text_17">
    <text style="fill: #262626; font: 16.8px 'sans-serif'; text-anchor: middle" x="180.644313" y="215.641125" transform="rotate(-0, 180.644313, 215.641125)">1.000</text>
   </g>
   <g id="text_18">
    <text style="fill: #262626; font: 16.8px 'sans-serif'; text-anchor: middle" x="280.004313" y="215.641125" transform="rotate(-0, 280.004313, 215.641125)">0.352</text>
   </g>
   <g id="text_19">
    <text style="fill: #ffffff; font: 16.8px 'sans-serif'; text-anchor: middle" x="379.364313" y="215.641125" transform="rotate(-0, 379.364313, 215.641125)">0.000</text>
   </g>
   <g id="text_20">
    <text style="fill: #ffffff; font: 16.8px 'sans-serif'; text-anchor: middle" x="478.724313" y="215.641125" transform="rotate(-0, 478.724313, 215.641125)">0.000</text>
   </g>
   <g id="text_21">
    <text style="fill: #262626; font: 16.8px 'sans-serif'; text-anchor: middle" x="81.284313" y="315.001125" transform="rotate(-0, 81.284313, 315.001125)">0.180</text>
   </g>
   <g id="text_22">
    <text style="fill: #262626; font: 16.8px 'sans-serif'; text-anchor: middle" x="180.644313" y="315.001125" transform="rotate(-0, 180.644313, 315.001125)">0.352</text>
   </g>
   <g id="text_23">
    <text style="fill: #262626; font: 16.8px 'sans-serif'; text-anchor: middle" x="280.004313" y="315.001125" transform="rotate(-0, 280.004313, 315.001125)">1.000</text>
   </g>
   <g id="text_24">
    <text style="fill: #ffffff; font: 16.8px 'sans-serif'; text-anchor: middle" x="379.364313" y="315.001125" transform="rotate(-0, 379.364313, 315.001125)">0.001</text>
   </g>
   <g id="text_25">
    <text style="fill: #ffffff; font: 16.8px 'sans-serif'; text-anchor: middle" x="478.724313" y="315.001125" transform="rotate(-0, 478.724313, 315.001125)">0.000</text>
   </g>
   <g id="text_26">
    <text style="fill: #ffffff; font: 16.8px 'sans-serif'; text-anchor: middle" x="81.284313" y="414.361125" transform="rotate(-0, 81.284313, 414.361125)">0.000</text>
   </g>
   <g id="text_27">
    <text style="fill: #ffffff; font: 16.8px 'sans-serif'; text-anchor: middle" x="180.644313" y="414.361125" transform="rotate(-0, 180.644313, 414.361125)">0.000</text>
   </g>
   <g id="text_28">
    <text style="fill: #ffffff; font: 16.8px 'sans-serif'; text-anchor: middle" x="280.004313" y="414.361125" transform="rotate(-0, 280.004313, 414.361125)">0.001</text>
   </g>
   <g id="text_29">
    <text style="fill: #262626; font: 16.8px 'sans-serif'; text-anchor: middle" x="379.364313" y="414.361125" transform="rotate(-0, 379.364313, 414.361125)">1.000</text>
   </g>
   <g id="text_30">
    <text style="fill: #ffffff; font: 16.8px 'sans-serif'; text-anchor: middle" x="478.724313" y="414.361125" transform="rotate(-0, 478.724313, 414.361125)">0.000</text>
   </g>
   <g id="text_31">
    <text style="fill: #ffffff; font: 16.8px 'sans-serif'; text-anchor: middle" x="81.284313" y="513.721125" transform="rotate(-0, 81.284313, 513.721125)">0.000</text>
   </g>
   <g id="text_32">
    <text style="fill: #ffffff; font: 16.8px 'sans-serif'; text-anchor: middle" x="180.644313" y="513.721125" transform="rotate(-0, 180.644313, 513.721125)">0.000</text>
   </g>
   <g id="text_33">
    <text style="fill: #ffffff; font: 16.8px 'sans-serif'; text-anchor: middle" x="280.004313" y="513.721125" transform="rotate(-0, 280.004313, 513.721125)">0.000</text>
   </g>
   <g id="text_34">
    <text style="fill: #ffffff; font: 16.8px 'sans-serif'; text-anchor: middle" x="379.364313" y="513.721125" transform="rotate(-0, 379.364313, 513.721125)">0.000</text>
   </g>
   <g id="text_35">
    <text style="fill: #262626; font: 16.8px 'sans-serif'; text-anchor: middle" x="478.724313" y="513.721125" transform="rotate(-0, 478.724313, 513.721125)">1.000</text>
   </g>
  </g>
  <g id="axes_2">
   <g id="patch_3">
    <path d="M 595.004312 241.965375 
L 623.804312 241.965375 
L 623.804312 25.965375 
L 595.004312 25.965375 
z
" style="fill: #ffffff"/>
   </g>
   <g id="patch_4">
    <path clip-path="url(#p4fc103e84d)" style="fill: #ffffff; stroke: #ffffff; stroke-width: 0.01; stroke-linejoin: miter"/>
   </g>
   <g id="matplotlib.axis_3">
    <g id="ytick_6">
     <g id="line2d_11"/>
     <g id="text_36">
      <text style="fill: #262626; font: 15.4px 'sans-serif'; text-anchor: start" x="627.304312" y="220.816172" transform="rotate(-0, 627.304312, 220.816172)">p &lt; 0.001</text>
     </g>
    </g>
    <g id="ytick_7">
     <g id="line2d_12"/>
     <g id="text_37">
      <text style="fill: #262626; font: 15.4px 'sans-serif'; text-anchor: start" x="627.304312" y="166.816172" transform="rotate(-0, 627.304312, 166.816172)">p &lt; 0.01</text>
     </g>
    </g>
    <g id="ytick_8">
     <g id="line2d_13"/>
     <g id="text_38">
      <text style="fill: #262626; font: 15.4px 'sans-serif'; text-anchor: start" x="627.304312" y="112.816172" transform="rotate(-0, 627.304312, 112.816172)">p &lt; 0.05</text>
     </g>
    </g>
    <g id="ytick_9">
     <g id="line2d_14"/>
     <g id="text_39">
      <text style="fill: #262626; font: 15.4px 'sans-serif'; text-anchor: start" x="627.304312" y="58.816172" transform="rotate(-0, 627.304312, 58.816172)">NS</text>
     </g>
    </g>
   </g>
   <g id="QuadMesh_2">
    <path d="M 595.004312 241.965375 
L 623.804312 241.965375 
L 623.804312 187.965375 
L 595.004312 187.965375 
L 595.004312 241.965375 
" clip-path="url(#p4fc103e84d)" style="fill: #005a32"/>
    <path d="M 595.004312 187.965375 
L 623.804312 187.965375 
L 623.804312 133.965375 
L 595.004312 133.965375 
L 595.004312 187.965375 
" clip-path="url(#p4fc103e84d)" style="fill: #238b45"/>
    <path d="M 595.004312 133.965375 
L 623.804312 133.965375 
L 623.804312 79.965375 
L 595.004312 79.965375 
L 595.004312 133.965375 
" clip-path="url(#p4fc103e84d)" style="fill: #a1d99b"/>
    <path d="M 595.004312 79.965375 
L 623.804312 79.965375 
L 623.804312 25.965375 
L 595.004312 25.965375 
L 595.004312 79.965375 
" clip-path="url(#p4fc103e84d)" style="fill: #fbd7d4"/>
   </g>
   <g id="LineCollection_1"/>
   <g id="patch_5">
    <path d="M 595.004312 241.965375 
L 609.404312 241.965375 
L 623.804312 241.965375 
L 623.804312 25.965375 
L 609.404312 25.965375 
L 595.004312 25.965375 
L 595.004312 241.965375 
z
" style="fill: none; stroke: #808080; stroke-linejoin: miter; stroke-linecap: square"/>
   </g>
   <g id="text_40">
    <text style="fill: #262626; font: 16.8px 'sans-serif'; text-anchor: middle" x="609.404312" y="19.965375" transform="rotate(-0, 609.404312, 19.965375)">information-loss</text>
   </g>
  </g>
 </g>
 <defs>
  <clipPath id="p4fc103e84d">
   <rect x="595.004312" y="25.965375" width="28.8" height="216"/>
  </clipPath>
 </defs>
</svg>
