<?xml version="1.0" encoding="utf-8" standalone="no"?>
<!DOCTYPE svg PUBLIC "-//W3C//DTD SVG 1.1//EN"
  "http://www.w3.org/Graphics/SVG/1.1/DTD/svg11.dtd">
<svg xmlns:xlink="http://www.w3.org/1999/xlink" width="720pt" height="720pt" viewBox="0 0 720 720" xmlns="http://www.w3.org/2000/svg" version="1.1">
 <metadata>
  <rdf:RDF xmlns:dc="http://purl.org/dc/elements/1.1/" xmlns:cc="http://creativecommons.org/ns#" xmlns:rdf="http://www.w3.org/1999/02/22-rdf-syntax-ns#">
   <cc:Work>
    <dc:type rdf:resource="http://purl.org/dc/dcmitype/StillImage"/>
    <dc:date>2022-12-06T17:24:45.603585</dc:date>
    <dc:format>image/svg+xml</dc:format>
    <dc:creator>
     <cc:Agent>
      <dc:title>Matplotlib v3.5.2, https://matplotlib.org/</dc:title>
     </cc:Agent>
    </dc:creator>
   </cc:Work>
  </rdf:RDF>
 </metadata>
 <defs>
  <style type="text/css">*{stroke-linejoin: round; stroke-linecap: butt}</style>
 </defs>
 <g id="figure_1">
  <g id="patch_1">
   <path d="M 0 720 
L 720 720 
L 720 0 
L 0 0 
z
" style="fill: #ffffff"/>
  </g>
  <g id="axes_1">
   <g id="patch_2">
    <path d="M 120.6 640.8 
L 617.4 640.8 
L 617.4 144 
L 120.6 144 
z
" style="fill: #ffffff"/>
   </g>
   <g id="matplotlib.axis_1">
    <g id="xtick_1">
     <g id="line2d_1">
      <defs>
       <path id="mdcc73f8cf3" d="M 0 0 
L 0 6 
" style="stroke: #262626; stroke-width: 1.25"/>
      </defs>
      <g>
       <use xlink:href="#mdcc73f8cf3" x="182.7" y="640.8" style="fill: #262626; stroke: #262626; stroke-width: 1.25"/>
      </g>
     </g>
     <g id="text_1">
      <text style="fill: #262626; font: 27.5px 'sans-serif'" transform="translate(174.891289 992.064844)rotate(-90)">TrainIntact-TestPerturbed</text>
      <text style="fill: #262626; font: 27.5px 'sans-serif'" transform="translate(205.685273 922.195508)rotate(-90)">contextualized</text>
     </g>
    </g>
    <g id="xtick_2">
     <g id="line2d_2">
      <g>
       <use xlink:href="#mdcc73f8cf3" x="306.9" y="640.8" style="fill: #262626; stroke: #262626; stroke-width: 1.25"/>
      </g>
     </g>
     <g id="text_2">
      <text style="fill: #262626; font: 27.5px 'sans-serif'" transform="translate(299.091289 992.064844)rotate(-90)">TrainIntact-TestPerturbed</text>
      <text style="fill: #262626; font: 27.5px 'sans-serif'" transform="translate(329.885273 939.385156)rotate(-90)">decontextualized</text>
     </g>
    </g>
    <g id="xtick_3">
     <g id="line2d_3">
      <g>
       <use xlink:href="#mdcc73f8cf3" x="431.1" y="640.8" style="fill: #262626; stroke: #262626; stroke-width: 1.25"/>
      </g>
     </g>
     <g id="text_3">
      <text style="fill: #262626; font: 27.5px 'sans-serif'" transform="translate(423.291289 1048.151953)rotate(-90)">TrainPerturbed-TestPerturbed</text>
      <text style="fill: #262626; font: 27.5px 'sans-serif'" transform="translate(454.085273 950.239063)rotate(-90)">contextualized</text>
     </g>
    </g>
    <g id="xtick_4">
     <g id="line2d_4">
      <g>
       <use xlink:href="#mdcc73f8cf3" x="555.3" y="640.8" style="fill: #262626; stroke: #262626; stroke-width: 1.25"/>
      </g>
     </g>
     <g id="text_4">
      <text style="fill: #262626; font: 27.5px 'sans-serif'" transform="translate(547.491289 1048.151953)rotate(-90)">TrainPerturbed-TestPerturbed</text>
      <text style="fill: #262626; font: 27.5px 'sans-serif'" transform="translate(578.285273 967.428711)rotate(-90)">decontextualized</text>
     </g>
    </g>
   </g>
   <g id="matplotlib.axis_2">
    <g id="ytick_1">
     <g id="line2d_5">
      <defs>
       <path id="m66692db86a" d="M 0 0 
L -6 0 
" style="stroke: #262626; stroke-width: 1.25"/>
      </defs>
      <g>
       <use xlink:href="#m66692db86a" x="120.6" y="206.1" style="fill: #262626; stroke: #262626; stroke-width: 1.25"/>
      </g>
     </g>
     <g id="text_5">
      <text style="fill: #262626; font: 27.5px 'sans-serif'" transform="translate(-230.664844 198.291289)">TrainIntact-TestPerturbed</text>
      <text style="fill: #262626; font: 27.5px 'sans-serif'" transform="translate(-90.926172 229.085273)">contextualized</text>
     </g>
    </g>
    <g id="ytick_2">
     <g id="line2d_6">
      <g>
       <use xlink:href="#m66692db86a" x="120.6" y="330.3" style="fill: #262626; stroke: #262626; stroke-width: 1.25"/>
      </g>
     </g>
     <g id="text_6">
      <text style="fill: #262626; font: 27.5px 'sans-serif'" transform="translate(-230.664844 322.491289)">TrainIntact-TestPerturbed</text>
      <text style="fill: #262626; font: 27.5px 'sans-serif'" transform="translate(-125.305469 353.285273)">decontextualized</text>
     </g>
    </g>
    <g id="ytick_3">
     <g id="line2d_7">
      <g>
       <use xlink:href="#m66692db86a" x="120.6" y="454.5" style="fill: #262626; stroke: #262626; stroke-width: 1.25"/>
      </g>
     </g>
     <g id="text_7">
      <text style="fill: #262626; font: 27.5px 'sans-serif'" transform="translate(-286.751953 446.691289)">TrainPerturbed-TestPerturbed</text>
      <text style="fill: #262626; font: 27.5px 'sans-serif'" transform="translate(-90.926172 477.485273)">contextualized</text>
     </g>
    </g>
    <g id="ytick_4">
     <g id="line2d_8">
      <g>
       <use xlink:href="#m66692db86a" x="120.6" y="578.7" style="fill: #262626; stroke: #262626; stroke-width: 1.25"/>
      </g>
     </g>
     <g id="text_8">
      <text style="fill: #262626; font: 27.5px 'sans-serif'" transform="translate(-286.751953 570.891289)">TrainPerturbed-TestPerturbed</text>
      <text style="fill: #262626; font: 27.5px 'sans-serif'" transform="translate(-125.305469 601.685273)">decontextualized</text>
     </g>
    </g>
   </g>
   <g id="QuadMesh_1">
    <path d="M 120.6 144 
L 244.8 144 
L 244.8 268.2 
L 120.6 268.2 
L 120.6 144 
" style="fill: #ffffff; stroke: #808080; stroke-width: 0.25"/>
    <path d="M 244.8 144 
L 369 144 
L 369 268.2 
L 244.8 268.2 
L 244.8 144 
" style="fill: #005a32; stroke: #808080; stroke-width: 0.25"/>
    <path d="M 369 144 
L 493.2 144 
L 493.2 268.2 
L 369 268.2 
L 369 144 
" style="fill: #005a32; stroke: #808080; stroke-width: 0.25"/>
    <path d="M 493.2 144 
L 617.4 144 
L 617.4 268.2 
L 493.2 268.2 
L 493.2 144 
" style="fill: #005a32; stroke: #808080; stroke-width: 0.25"/>
    <path d="M 120.6 268.2 
L 244.8 268.2 
L 244.8 392.4 
L 120.6 392.4 
L 120.6 268.2 
" style="fill: #005a32; stroke: #808080; stroke-width: 0.25"/>
    <path d="M 244.8 268.2 
L 369 268.2 
L 369 392.4 
L 244.8 392.4 
L 244.8 268.2 
" style="fill: #ffffff; stroke: #808080; stroke-width: 0.25"/>
    <path d="M 369 268.2 
L 493.2 268.2 
L 493.2 392.4 
L 369 392.4 
L 369 268.2 
" style="fill: #005a32; stroke: #808080; stroke-width: 0.25"/>
    <path d="M 493.2 268.2 
L 617.4 268.2 
L 617.4 392.4 
L 493.2 392.4 
L 493.2 268.2 
" style="fill: #fbd7d4; stroke: #808080; stroke-width: 0.25"/>
    <path d="M 120.6 392.4 
L 244.8 392.4 
L 244.8 516.6 
L 120.6 516.6 
L 120.6 392.4 
" style="fill: #005a32; stroke: #808080; stroke-width: 0.25"/>
    <path d="M 244.8 392.4 
L 369 392.4 
L 369 516.6 
L 244.8 516.6 
L 244.8 392.4 
" style="fill: #005a32; stroke: #808080; stroke-width: 0.25"/>
    <path d="M 369 392.4 
L 493.2 392.4 
L 493.2 516.6 
L 369 516.6 
L 369 392.4 
" style="fill: #ffffff; stroke: #808080; stroke-width: 0.25"/>
    <path d="M 493.2 392.4 
L 617.4 392.4 
L 617.4 516.6 
L 493.2 516.6 
L 493.2 392.4 
" style="fill: #005a32; stroke: #808080; stroke-width: 0.25"/>
    <path d="M 120.6 516.6 
L 244.8 516.6 
L 244.8 640.8 
L 120.6 640.8 
L 120.6 516.6 
" style="fill: #005a32; stroke: #808080; stroke-width: 0.25"/>
    <path d="M 244.8 516.6 
L 369 516.6 
L 369 640.8 
L 244.8 640.8 
L 244.8 516.6 
" style="fill: #fbd7d4; stroke: #808080; stroke-width: 0.25"/>
    <path d="M 369 516.6 
L 493.2 516.6 
L 493.2 640.8 
L 369 640.8 
L 369 516.6 
" style="fill: #005a32; stroke: #808080; stroke-width: 0.25"/>
    <path d="M 493.2 516.6 
L 617.4 516.6 
L 617.4 640.8 
L 493.2 640.8 
L 493.2 516.6 
" style="fill: #ffffff; stroke: #808080; stroke-width: 0.25"/>
   </g>
   <g id="text_9">
    <text style="fill: #262626; font: 30px 'sans-serif'; text-anchor: middle" x="182.7" y="214.378125" transform="rotate(-0, 182.7, 214.378125)">1.000</text>
   </g>
   <g id="text_10">
    <text style="fill: #ffffff; font: 30px 'sans-serif'; text-anchor: middle" x="306.9" y="214.378125" transform="rotate(-0, 306.9, 214.378125)">0.000</text>
   </g>
   <g id="text_11">
    <text style="fill: #ffffff; font: 30px 'sans-serif'; text-anchor: middle" x="431.1" y="214.378125" transform="rotate(-0, 431.1, 214.378125)">0.000</text>
   </g>
   <g id="text_12">
    <text style="fill: #ffffff; font: 30px 'sans-serif'; text-anchor: middle" x="555.3" y="214.378125" transform="rotate(-0, 555.3, 214.378125)">0.000</text>
   </g>
   <g id="text_13">
    <text style="fill: #ffffff; font: 30px 'sans-serif'; text-anchor: middle" x="182.7" y="338.578125" transform="rotate(-0, 182.7, 338.578125)">0.000</text>
   </g>
   <g id="text_14">
    <text style="fill: #262626; font: 30px 'sans-serif'; text-anchor: middle" x="306.9" y="338.578125" transform="rotate(-0, 306.9, 338.578125)">1.000</text>
   </g>
   <g id="text_15">
    <text style="fill: #ffffff; font: 30px 'sans-serif'; text-anchor: middle" x="431.1" y="338.578125" transform="rotate(-0, 431.1, 338.578125)">0.000</text>
   </g>
   <g id="text_16">
    <text style="fill: #262626; font: 30px 'sans-serif'; text-anchor: middle" x="555.3" y="338.578125" transform="rotate(-0, 555.3, 338.578125)">0.781</text>
   </g>
   <g id="text_17">
    <text style="fill: #ffffff; font: 30px 'sans-serif'; text-anchor: middle" x="182.7" y="462.778125" transform="rotate(-0, 182.7, 462.778125)">0.000</text>
   </g>
   <g id="text_18">
    <text style="fill: #ffffff; font: 30px 'sans-serif'; text-anchor: middle" x="306.9" y="462.778125" transform="rotate(-0, 306.9, 462.778125)">0.000</text>
   </g>
   <g id="text_19">
    <text style="fill: #262626; font: 30px 'sans-serif'; text-anchor: middle" x="431.1" y="462.778125" transform="rotate(-0, 431.1, 462.778125)">1.000</text>
   </g>
   <g id="text_20">
    <text style="fill: #ffffff; font: 30px 'sans-serif'; text-anchor: middle" x="555.3" y="462.778125" transform="rotate(-0, 555.3, 462.778125)">0.000</text>
   </g>
   <g id="text_21">
    <text style="fill: #ffffff; font: 30px 'sans-serif'; text-anchor: middle" x="182.7" y="586.978125" transform="rotate(-0, 182.7, 586.978125)">0.000</text>
   </g>
   <g id="text_22">
    <text style="fill: #262626; font: 30px 'sans-serif'; text-anchor: middle" x="306.9" y="586.978125" transform="rotate(-0, 306.9, 586.978125)">0.781</text>
   </g>
   <g id="text_23">
    <text style="fill: #ffffff; font: 30px 'sans-serif'; text-anchor: middle" x="431.1" y="586.978125" transform="rotate(-0, 431.1, 586.978125)">0.000</text>
   </g>
   <g id="text_24">
    <text style="fill: #262626; font: 30px 'sans-serif'; text-anchor: middle" x="555.3" y="586.978125" transform="rotate(-0, 555.3, 586.978125)">1.000</text>
   </g>
  </g>
  <g id="axes_2">
   <g id="patch_3">
    <path d="M 684 324 
L 712.8 324 
L 712.8 108 
L 684 108 
z
" style="fill: #ffffff"/>
   </g>
   <g id="patch_4">
    <path clip-path="url(#p1cf44ee23d)" style="fill: #ffffff; stroke: #ffffff; stroke-width: 0.01; stroke-linejoin: miter"/>
   </g>
   <g id="matplotlib.axis_3">
    <g id="ytick_5">
     <g id="line2d_9"/>
     <g id="text_25">
      <text style="fill: #262626; font: 27.5px 'sans-serif'; text-anchor: start" x="716.3" y="307.447852" transform="rotate(-0, 716.3, 307.447852)">p &lt; 0.001</text>
     </g>
    </g>
    <g id="ytick_6">
     <g id="line2d_10"/>
     <g id="text_26">
      <text style="fill: #262626; font: 27.5px 'sans-serif'; text-anchor: start" x="716.3" y="253.447852" transform="rotate(-0, 716.3, 253.447852)">p &lt; 0.01</text>
     </g>
    </g>
    <g id="ytick_7">
     <g id="line2d_11"/>
     <g id="text_27">
      <text style="fill: #262626; font: 27.5px 'sans-serif'; text-anchor: start" x="716.3" y="199.447852" transform="rotate(-0, 716.3, 199.447852)">p &lt; 0.05</text>
     </g>
    </g>
    <g id="ytick_8">
     <g id="line2d_12"/>
     <g id="text_28">
      <text style="fill: #262626; font: 27.5px 'sans-serif'; text-anchor: start" x="716.3" y="145.447852" transform="rotate(-0, 716.3, 145.447852)">NS</text>
     </g>
    </g>
   </g>
   <g id="QuadMesh_2">
    <path d="M 684 324 
L 712.8 324 
L 712.8 270 
L 684 270 
L 684 324 
" clip-path="url(#p1cf44ee23d)" style="fill: #005a32"/>
    <path d="M 684 270 
L 712.8 270 
L 712.8 216 
L 684 216 
L 684 270 
" clip-path="url(#p1cf44ee23d)" style="fill: #238b45"/>
    <path d="M 684 216 
L 712.8 216 
L 712.8 162 
L 684 162 
L 684 216 
" clip-path="url(#p1cf44ee23d)" style="fill: #a1d99b"/>
    <path d="M 684 162 
L 712.8 162 
L 712.8 108 
L 684 108 
L 684 162 
" clip-path="url(#p1cf44ee23d)" style="fill: #fbd7d4"/>
   </g>
   <g id="LineCollection_1"/>
   <g id="patch_5">
    <path d="M 684 324 
L 698.4 324 
L 712.8 324 
L 712.8 108 
L 698.4 108 
L 684 108 
L 684 324 
z
" style="fill: none; stroke: #808080; stroke-linejoin: miter; stroke-linecap: square"/>
   </g>
  </g>
 </g>
 <defs>
  <clipPath id="p1cf44ee23d">
   <rect x="684" y="108" width="28.8" height="216"/>
  </clipPath>
 </defs>
</svg>
